<mxfile host="app.diagrams.net" modified="2022-05-01T05:50:51.885Z" agent="5.0 (Windows NT 10.0; Win64; x64) AppleWebKit/537.36 (KHTML, like Gecko) Chrome/100.0.4896.127 Safari/537.36" etag="hoQY0TwsIJa90lxxjIQS" version="17.5.0" type="github">
  <diagram id="kSQFe9Fa3ZTAE4xW9KOj" name="Page-1">
    <mxGraphModel dx="868" dy="460" grid="1" gridSize="10" guides="1" tooltips="1" connect="1" arrows="1" fold="1" page="1" pageScale="1" pageWidth="827" pageHeight="1169" math="0" shadow="0">
      <root>
        <mxCell id="0" />
        <mxCell id="1" parent="0" />
        <mxCell id="xbfKCH-Q-x0yVWyje-9f-7" value="" style="edgeStyle=orthogonalEdgeStyle;rounded=0;orthogonalLoop=1;jettySize=auto;html=1;" edge="1" parent="1" source="xbfKCH-Q-x0yVWyje-9f-1" target="xbfKCH-Q-x0yVWyje-9f-2">
          <mxGeometry relative="1" as="geometry" />
        </mxCell>
        <mxCell id="xbfKCH-Q-x0yVWyje-9f-1" value="新建状态" style="rounded=0;whiteSpace=wrap;html=1;" vertex="1" parent="1">
          <mxGeometry x="40" y="200" width="120" height="60" as="geometry" />
        </mxCell>
        <mxCell id="xbfKCH-Q-x0yVWyje-9f-8" value="" style="edgeStyle=orthogonalEdgeStyle;rounded=0;orthogonalLoop=1;jettySize=auto;html=1;" edge="1" parent="1" source="xbfKCH-Q-x0yVWyje-9f-2" target="xbfKCH-Q-x0yVWyje-9f-3">
          <mxGeometry relative="1" as="geometry" />
        </mxCell>
        <mxCell id="xbfKCH-Q-x0yVWyje-9f-2" value="就绪状态" style="rounded=0;whiteSpace=wrap;html=1;" vertex="1" parent="1">
          <mxGeometry x="230" y="200" width="120" height="60" as="geometry" />
        </mxCell>
        <mxCell id="xbfKCH-Q-x0yVWyje-9f-11" value="" style="edgeStyle=orthogonalEdgeStyle;rounded=0;orthogonalLoop=1;jettySize=auto;html=1;" edge="1" parent="1" source="xbfKCH-Q-x0yVWyje-9f-3" target="xbfKCH-Q-x0yVWyje-9f-4">
          <mxGeometry relative="1" as="geometry" />
        </mxCell>
        <mxCell id="xbfKCH-Q-x0yVWyje-9f-15" style="edgeStyle=orthogonalEdgeStyle;rounded=0;orthogonalLoop=1;jettySize=auto;html=1;entryX=1;entryY=0.5;entryDx=0;entryDy=0;" edge="1" parent="1" source="xbfKCH-Q-x0yVWyje-9f-3" target="xbfKCH-Q-x0yVWyje-9f-6">
          <mxGeometry relative="1" as="geometry">
            <Array as="points">
              <mxPoint x="474" y="350" />
            </Array>
          </mxGeometry>
        </mxCell>
        <mxCell id="xbfKCH-Q-x0yVWyje-9f-17" style="edgeStyle=orthogonalEdgeStyle;rounded=0;orthogonalLoop=1;jettySize=auto;html=1;entryX=1;entryY=0.5;entryDx=0;entryDy=0;" edge="1" parent="1" source="xbfKCH-Q-x0yVWyje-9f-3" target="xbfKCH-Q-x0yVWyje-9f-5">
          <mxGeometry relative="1" as="geometry">
            <Array as="points">
              <mxPoint x="474" y="130" />
            </Array>
          </mxGeometry>
        </mxCell>
        <mxCell id="xbfKCH-Q-x0yVWyje-9f-3" value="运行状态" style="rounded=0;whiteSpace=wrap;html=1;" vertex="1" parent="1">
          <mxGeometry x="450" y="200" width="120" height="60" as="geometry" />
        </mxCell>
        <mxCell id="xbfKCH-Q-x0yVWyje-9f-4" value="死亡状态" style="rounded=0;whiteSpace=wrap;html=1;" vertex="1" parent="1">
          <mxGeometry x="650" y="200" width="120" height="60" as="geometry" />
        </mxCell>
        <mxCell id="xbfKCH-Q-x0yVWyje-9f-14" style="edgeStyle=orthogonalEdgeStyle;rounded=0;orthogonalLoop=1;jettySize=auto;html=1;entryX=0.5;entryY=0;entryDx=0;entryDy=0;" edge="1" parent="1" source="xbfKCH-Q-x0yVWyje-9f-5" target="xbfKCH-Q-x0yVWyje-9f-2">
          <mxGeometry relative="1" as="geometry">
            <Array as="points">
              <mxPoint x="290" y="130" />
            </Array>
          </mxGeometry>
        </mxCell>
        <mxCell id="xbfKCH-Q-x0yVWyje-9f-5" value="等待阻塞" style="rounded=0;whiteSpace=wrap;html=1;" vertex="1" parent="1">
          <mxGeometry x="320" y="100" width="120" height="60" as="geometry" />
        </mxCell>
        <mxCell id="xbfKCH-Q-x0yVWyje-9f-16" style="edgeStyle=orthogonalEdgeStyle;rounded=0;orthogonalLoop=1;jettySize=auto;html=1;entryX=0.5;entryY=1;entryDx=0;entryDy=0;" edge="1" parent="1" source="xbfKCH-Q-x0yVWyje-9f-6" target="xbfKCH-Q-x0yVWyje-9f-2">
          <mxGeometry relative="1" as="geometry">
            <Array as="points">
              <mxPoint x="290" y="350" />
            </Array>
          </mxGeometry>
        </mxCell>
        <mxCell id="xbfKCH-Q-x0yVWyje-9f-6" value="其他阻塞" style="rounded=0;whiteSpace=wrap;html=1;" vertex="1" parent="1">
          <mxGeometry x="320" y="320" width="120" height="60" as="geometry" />
        </mxCell>
        <mxCell id="xbfKCH-Q-x0yVWyje-9f-18" value="" style="endArrow=classic;html=1;rounded=0;exitX=-0.003;exitY=0.333;exitDx=0;exitDy=0;exitPerimeter=0;entryX=1;entryY=0.333;entryDx=0;entryDy=0;entryPerimeter=0;" edge="1" parent="1" source="xbfKCH-Q-x0yVWyje-9f-3" target="xbfKCH-Q-x0yVWyje-9f-2">
          <mxGeometry width="50" height="50" relative="1" as="geometry">
            <mxPoint x="410" y="220" as="sourcePoint" />
            <mxPoint x="380" y="220" as="targetPoint" />
          </mxGeometry>
        </mxCell>
        <mxCell id="xbfKCH-Q-x0yVWyje-9f-19" value="start()" style="text;html=1;resizable=0;autosize=1;align=center;verticalAlign=middle;points=[];fillColor=none;strokeColor=none;rounded=0;" vertex="1" parent="1">
          <mxGeometry x="165" y="210" width="50" height="20" as="geometry" />
        </mxCell>
        <mxCell id="xbfKCH-Q-x0yVWyje-9f-20" value="notify()/notifyAll()&lt;br&gt;resume()" style="text;html=1;resizable=0;autosize=1;align=center;verticalAlign=middle;points=[];fillColor=none;strokeColor=none;rounded=0;" vertex="1" parent="1">
          <mxGeometry x="180" y="145" width="110" height="30" as="geometry" />
        </mxCell>
        <mxCell id="xbfKCH-Q-x0yVWyje-9f-21" value="wait()&lt;br&gt;suspend()" style="text;html=1;resizable=0;autosize=1;align=center;verticalAlign=middle;points=[];fillColor=none;strokeColor=none;rounded=0;" vertex="1" parent="1">
          <mxGeometry x="470" y="145" width="70" height="30" as="geometry" />
        </mxCell>
        <mxCell id="xbfKCH-Q-x0yVWyje-9f-22" value="获得cpu使用权" style="text;html=1;resizable=0;autosize=1;align=center;verticalAlign=middle;points=[];fillColor=none;strokeColor=none;rounded=0;" vertex="1" parent="1">
          <mxGeometry x="355" y="230" width="90" height="20" as="geometry" />
        </mxCell>
        <mxCell id="xbfKCH-Q-x0yVWyje-9f-24" value="失去cpu使用权" style="text;html=1;resizable=0;autosize=1;align=center;verticalAlign=middle;points=[];fillColor=none;strokeColor=none;rounded=0;" vertex="1" parent="1">
          <mxGeometry x="355" y="200" width="90" height="20" as="geometry" />
        </mxCell>
        <mxCell id="xbfKCH-Q-x0yVWyje-9f-25" value="run()的结束&lt;br&gt;或错误/异常&lt;br&gt;或stop()" style="text;html=1;resizable=0;autosize=1;align=center;verticalAlign=middle;points=[];fillColor=none;strokeColor=none;rounded=0;" vertex="1" parent="1">
          <mxGeometry x="570" y="210" width="80" height="50" as="geometry" />
        </mxCell>
        <mxCell id="xbfKCH-Q-x0yVWyje-9f-26" value="调用sleep/join/等待同步锁执行结束" style="text;html=1;resizable=0;autosize=1;align=center;verticalAlign=middle;points=[];fillColor=none;strokeColor=none;rounded=0;" vertex="1" parent="1">
          <mxGeometry x="90" y="290" width="200" height="20" as="geometry" />
        </mxCell>
        <mxCell id="xbfKCH-Q-x0yVWyje-9f-28" value="调用sleep/join/等待同步锁" style="text;html=1;resizable=0;autosize=1;align=center;verticalAlign=middle;points=[];fillColor=none;strokeColor=none;rounded=0;" vertex="1" parent="1">
          <mxGeometry x="470" y="290" width="150" height="20" as="geometry" />
        </mxCell>
      </root>
    </mxGraphModel>
  </diagram>
</mxfile>
